<svg id="Layer_1" height="512" viewBox="0 0 512 512" width="512" xmlns="http://www.w3.org/2000/svg" data-name="Layer 1"><path d="m128.723 423.518-17.448-171.885h-30l17.448 171.885a12.962 12.962 0 0 0 12.933 11.687h30a12.962 12.962 0 0 1 -12.933-11.687z" fill="#d4e1f4"/><path d="m76.482 222.141a15.509 15.509 0 0 1 15.492-15.491h-30a15.492 15.492 0 1 0 0 30.983h30a15.51 15.51 0 0 1 -15.492-15.492z" fill="#d4e1f4"/><g fill="#0635c9"><path d="m439.123 238.21a7 7 0 0 0 -7.671 6.257l-18.175 179.051a12.962 12.962 0 0 1 -12.933 11.687h-288.688a12.962 12.962 0 0 1 -12.933-11.687l-18.175-179.051a7 7 0 0 0 -13.929 1.414l18.175 179.051a26.924 26.924 0 0 0 26.862 24.273h288.688a26.922 26.922 0 0 0 26.861-24.273l18.176-179.051a7 7 0 0 0 -6.258-7.671z"/><path d="m249 285.23v115.3a7 7 0 1 0 14 0v-115.3a7 7 0 0 0 -14 0z"/><path d="m328.57 285.23v115.3a7 7 0 0 0 14 0v-115.3a7 7 0 0 0 -14 0z"/><path d="m169.43 285.23v115.3a7 7 0 0 0 14 0v-115.3a7 7 0 0 0 -14 0z"/><path d="m414.606 205.568a7 7 0 0 0 5.757-10.974l-88.773-128.772a7 7 0 1 0 -11.526 7.945l88.772 128.772a6.991 6.991 0 0 0 5.77 3.029z"/><path d="m196.1 64.031a7 7 0 0 0 -9.736 1.791l-88.772 128.772a7 7 0 1 0 11.526 7.945l88.772-128.772a7 7 0 0 0 -1.79-9.736z"/></g><path d="m450.026 192.65h-388.052a29.492 29.492 0 1 0 0 58.983h388.052a29.492 29.492 0 1 0 0-58.983zm0 44.983h-388.052a15.492 15.492 0 1 1 0-30.983h388.052a15.492 15.492 0 1 1 0 30.983z" fill="#1ae5be"/></svg>